<svg width="40" height="40" viewBox="0 0 40 40" fill="none" xmlns="http://www.w3.org/2000/svg">
<rect x="0.5" y="0.5" width="39" height="39" rx="19.5" fill="white"/>
<rect x="0.5" y="0.5" width="39" height="39" rx="19.5" stroke="#E8E8EA"/>
<path d="M17.2991 18.4902L17.9384 16.7513L18.5777 18.4902C19.1062 19.9052 20.2229 21.0304 21.6379 21.5504L23.3769 22.1897L21.6379 22.829C20.2229 23.3575 19.1062 24.4742 18.5777 25.8892L17.9384 27.6281L17.2991 25.8892C16.7706 24.4742 15.6539 23.349 14.2389 22.829L12.5 22.1897L14.2389 21.5504C15.6539 21.0219 16.7706 19.9052 17.2991 18.4902Z" stroke="#00091E" stroke-width="1.4" stroke-linejoin="round"/>
<path d="M24.312 12.5767L24.3375 12.5L24.3631 12.5767C24.8916 13.9917 26.0083 15.1169 27.4233 15.6369L27.5 15.6625L27.4233 15.688C26.0083 16.2165 24.8916 17.3332 24.3631 18.7482L24.3375 18.8249L24.312 18.7482C23.7835 17.3332 22.6668 16.208 21.2518 15.688L21.1751 15.6625L21.2518 15.6369C22.6668 15.1084 23.7835 13.9917 24.312 12.5767Z" stroke="#00091E" stroke-width="1.4" stroke-linejoin="round"/>
</svg>
